<?xml version="1.0" standalone="no"?>
<!DOCTYPE svg PUBLIC "-//W3C//DTD SVG 20010904//EN"
 "http://www.w3.org/TR/2001/REC-SVG-20010904/DTD/svg10.dtd">
<svg version="1.0" xmlns="http://www.w3.org/2000/svg"
 width="512.000000pt" height="512.000000pt" viewBox="0 0 512.000000 512.000000"
 preserveAspectRatio="xMidYMid meet">

<g transform="translate(0.000000,512.000000) scale(0.100000,-0.100000)"
fill="#000000" stroke="none">
<path d="M450 4664 c-172 -45 -313 -164 -391 -329 -51 -108 -59 -165 -59 -402
l0 -203 2560 0 2560 0 0 208 c0 244 -11 307 -70 421 -68 131 -192 240 -333
293 l-62 23 -2075 2 c-1790 2 -2083 0 -2130 -13z m3428 -259 c150 -63 169
-275 33 -370 l-43 -30 -906 -3 c-635 -2 -918 0 -945 8 -148 43 -195 247 -81
351 68 62 4 58 997 59 797 0 912 -2 945 -15z m717 -91 c44 -52 80 -98 80 -103
0 -9 -134 -169 -159 -190 -9 -8 -18 -5 -35 12 l-21 24 52 59 51 59 -136 3
-137 3 0 34 0 35 136 0 136 0 -51 57 -51 57 22 23 c12 13 24 23 27 22 3 0 42
-43 86 -95z m-3918 -18 c98 -107 -31 -271 -154 -196 -43 26 -66 63 -66 109 0
119 140 174 220 87z m361 24 c40 -25 66 -81 59 -127 -18 -111 -153 -151 -226
-67 -52 59 -38 156 28 197 36 23 99 21 139 -3z m398 -13 c68 -62 54 -171 -27
-213 -52 -26 -116 -14 -156 30 -28 31 -33 43 -33 87 0 46 4 55 39 90 35 35 44
39 90 39 44 0 56 -5 87 -33z"/>
<path d="M2083 4287 c3 -8 13 -50 23 -95 16 -72 22 -82 40 -82 19 0 24 9 35
65 7 36 16 62 19 58 4 -5 12 -34 19 -65 10 -46 16 -58 31 -58 14 0 22 11 30
43 6 23 18 64 26 91 17 61 18 56 -5 56 -15 0 -21 -12 -32 -65 -7 -35 -16 -62
-20 -60 -3 3 -10 26 -14 51 -9 64 -14 74 -35 74 -14 0 -21 -13 -31 -57 -19
-88 -24 -90 -38 -14 -11 60 -16 71 -33 71 -13 0 -18 -5 -15 -13z"/>
<path d="M2335 4278 c41 -162 41 -163 62 -166 17 -3 22 6 33 58 13 61 30 89
30 50 0 -12 5 -41 11 -66 15 -60 44 -61 59 -1 6 23 18 64 26 91 17 61 18 56
-5 56 -16 0 -21 -12 -32 -71 -13 -73 -21 -74 -33 -4 -11 64 -16 75 -35 75 -14
0 -21 -14 -31 -57 -14 -68 -29 -100 -30 -66 0 12 -5 44 -12 72 -9 39 -16 51
-30 51 -14 0 -17 -5 -13 -22z"/>
<path d="M2585 4278 c41 -162 41 -163 62 -166 17 -3 22 6 33 58 13 61 30 89
30 50 0 -12 5 -41 11 -66 8 -32 16 -44 30 -44 9 0 20 8 23 18 8 28 46 166 46
169 0 2 -8 3 -18 3 -15 0 -21 -14 -32 -72 -15 -79 -13 -81 -40 30 -8 30 -16
42 -29 42 -15 0 -21 -13 -32 -65 -7 -36 -16 -65 -21 -65 -4 0 -8 7 -8 15 0 7
-5 37 -11 65 -8 39 -15 50 -30 50 -15 0 -18 -5 -14 -22z"/>
<path d="M2825 4141 c-8 -15 3 -31 21 -31 9 0 14 7 12 17 -4 20 -24 28 -33 14z"/>
</g>
</svg>
